<?xml version="1.0" encoding="UTF-8" standalone="no"?>
<svg
   xmlns:dc="http://purl.org/dc/elements/1.1/"
   xmlns:cc="http://creativecommons.org/ns#"
   xmlns:rdf="http://www.w3.org/1999/02/22-rdf-syntax-ns#"
   xmlns:svg="http://www.w3.org/2000/svg"
   xmlns="http://www.w3.org/2000/svg"
   xmlns:sodipodi="http://sodipodi.sourceforge.net/DTD/sodipodi-0.dtd"
   xmlns:inkscape="http://www.inkscape.org/namespaces/inkscape"
   version="1.1"
   x="0px"
   y="0px"
   viewBox="0 0 119.73852 131.83701"
   xml:space="preserve"
   id="svg364"
   sodipodi:docname="SlovenskoIT_logo_RGB_S.svg"
   inkscape:version="1.0.2 (e86c870879, 2021-01-15)"
   width="119.73853"
   height="131.83701"><metadata
   id="metadata370"><rdf:RDF><cc:Work
       rdf:about=""><dc:format>image/svg+xml</dc:format><dc:type
         rdf:resource="http://purl.org/dc/dcmitype/StillImage" /><dc:title></dc:title></cc:Work></rdf:RDF></metadata><defs
   id="defs368" /><sodipodi:namedview
   pagecolor="#ffffff"
   bordercolor="#666666"
   borderopacity="1"
   objecttolerance="10"
   gridtolerance="10"
   guidetolerance="10"
   inkscape:pageopacity="0"
   inkscape:pageshadow="2"
   inkscape:window-width="1920"
   inkscape:window-height="1018"
   id="namedview366"
   showgrid="false"
   inkscape:zoom="3.081711"
   inkscape:cx="252.06652"
   inkscape:cy="65.918999"
   inkscape:window-x="-8"
   inkscape:window-y="-8"
   inkscape:window-maximized="1"
   inkscape:current-layer="svg364"
   inkscape:document-rotation="0"
   fit-margin-top="10"
   fit-margin-left="10"
   fit-margin-right="10"
   fit-margin-bottom="10"
   lock-margins="true" />
<style
   type="text/css"
   id="style252">
	.st0{fill:#FF3D4F;}
	.st1{fill:#2B2E83;}
	.st2{fill:#DDE6FF;}
	.st3{fill:#221E41;}
</style>
<g
   id="BG"
   transform="translate(-27.161477,-21.11)">
</g>
<g
   id="Logotyp"
   transform="translate(-27.161477,-21.11)">
	<g
   id="g361">
		<g
   id="g279">
			<g
   id="g277">
				<g
   id="g269">
					<g
   id="g267">
						<g
   id="g257">
							<path
   class="st0"
   d="m 87.9,142.947 c -7.608,0 -15.126,-1.104 -22.344,-3.283 -1.406,-0.425 -2.202,-1.908 -1.778,-3.315 0.424,-1.406 1.907,-2.201 3.315,-1.778 6.719,2.028 13.719,3.056 20.807,3.056 2.254,0 4.528,-0.106 6.761,-0.314 l 0.16,-0.021 c 4.441,-0.434 8.621,-1.838 12.422,-4.173 1.251,-0.769 2.889,-0.377 3.658,0.874 0.769,1.252 0.377,2.889 -0.874,3.658 -4.472,2.747 -9.387,4.404 -14.608,4.926 l -0.175,0.022 c -2.425,0.232 -4.896,0.348 -7.344,0.348 z"
   id="path255" />
						</g>
						<g
   id="g261">
							<path
   class="st0"
   d="m 117.356,130.16 c -0.562,0 -1.129,-0.177 -1.611,-0.545 -1.168,-0.891 -1.392,-2.56 -0.502,-3.727 4.134,-5.419 6.25,-12.176 5.96,-19.027 C 120.552,91.5 107.993,79.196 92.61,78.85 c -0.603,-0.014 -1.216,-0.009 -1.823,0.014 -0.7,0.027 -1.405,0.079 -2.095,0.155 l -0.282,0.016 -0.453,0.001 c -7.34,0 -13.311,-5.972 -13.311,-13.311 0,-6.76 5.026,-12.417 11.715,-13.216 l 0.331,-0.052 c 1.712,-0.157 3.456,-0.237 5.184,-0.237 11.064,0 21.761,3.226 30.935,9.33 0.87,0.579 1.929,0.621 2.831,0.112 0.425,-0.239 1.405,-0.954 1.343,-2.424 -0.036,-0.848 -0.463,-1.625 -1.142,-2.079 -10.065,-6.72 -21.811,-10.272 -33.966,-10.272 -1.626,0 -3.268,0.065 -4.885,0.192 l -0.104,0.03 -0.278,0.02 c -8.184,0.583 -15.12,6.589 -16.868,14.603 -0.313,1.435 -1.732,2.345 -3.165,2.032 -1.435,-0.313 -2.345,-1.73 -2.032,-3.165 2.226,-10.211 11.004,-17.885 21.4,-18.754 l 0.085,-0.025 0.262,-0.022 c 1.846,-0.153 3.725,-0.231 5.585,-0.231 13.21,0 25.977,3.862 36.92,11.168 2.086,1.392 3.395,3.739 3.503,6.276 0.128,3.014 -1.422,5.805 -4.045,7.283 -2.642,1.488 -5.856,1.367 -8.389,-0.318 -8.299,-5.521 -17.977,-8.439 -27.989,-8.439 -1.514,0 -3.041,0.067 -4.543,0.201 l -0.256,0.041 c -4.055,0.442 -7.113,3.857 -7.113,7.945 0,4.407 3.585,7.992 7.992,7.992 h 0.299 c 0.769,-0.081 1.551,-0.138 2.328,-0.168 0.714,-0.027 1.436,-0.033 2.146,-0.017 18.176,0.409 33.017,14.95 33.787,33.103 0.343,8.09 -2.159,16.072 -7.045,22.478 -0.523,0.688 -1.315,1.048 -2.116,1.048 z"
   id="path259" />
						</g>
						<g
   id="g265">
							<path
   class="st1"
   d="m 87.9,132.296 c -13.808,0 -27.053,-4.19 -38.302,-12.116 -1.201,-0.846 -1.488,-2.505 -0.642,-3.706 0.846,-1.2 2.506,-1.487 3.706,-0.642 10.348,7.291 22.533,11.145 35.239,11.145 2.122,0 4.261,-0.109 6.359,-0.326 l 0.226,-0.041 c 9.656,-1.32 16.706,-10.002 16.049,-19.766 -0.626,-9.315 -8.129,-16.758 -17.452,-17.315 -0.705,-0.042 -1.418,-0.046 -2.119,-0.009 -0.208,0.01 -0.414,0.024 -0.618,0.042 l -0.276,0.035 c -1.245,0.109 -2.515,0.121 -3.774,0.036 -9.926,-0.672 -18.498,-7.567 -21.331,-17.159 -0.416,-1.409 0.389,-2.888 1.797,-3.304 1.408,-0.416 2.888,0.389 3.304,1.797 2.206,7.468 8.873,12.837 16.589,13.359 0.963,0.065 1.933,0.058 2.883,-0.022 l 0.271,-0.035 c 0.293,-0.026 0.588,-0.047 0.885,-0.062 0.897,-0.045 1.807,-0.041 2.707,0.012 11.988,0.716 21.636,10.288 22.441,22.267 0.841,12.504 -8.166,23.628 -20.523,25.377 l -0.352,0.061 c -2.331,0.247 -4.708,0.372 -7.067,0.372 z"
   id="path263" />
						</g>
					</g>
				</g>
				<path
   class="st0"
   d="m 134.24,110.763 c -1.469,0 -2.659,-1.191 -2.659,-2.659 0,-3.269 -0.395,-6.518 -1.175,-9.659 -0.354,-1.425 0.515,-2.868 1.94,-3.222 1.427,-0.353 2.868,0.516 3.222,1.94 0.883,3.559 1.332,7.241 1.332,10.94 0,1.47 -1.191,2.66 -2.66,2.66 z"
   id="path271" />
				<path
   class="st2"
   d="m 87.9,121.644 c -10.758,0 -21.206,-3.063 -30.214,-8.858 -8.769,-5.641 -15.777,-13.585 -20.264,-22.973 -0.633,-1.325 -0.073,-2.913 1.252,-3.546 1.325,-0.633 2.913,-0.072 3.546,1.253 8.365,17.499 26.295,28.806 45.68,28.806 1.353,0 2.718,-0.054 4.063,-0.16 l 0.032,-0.011 0.406,-0.036 c 4.22,-0.242 7.525,-3.747 7.525,-7.979 0,-4.407 -3.585,-7.992 -7.992,-7.992 -0.168,0 -0.335,0.005 -0.5,0.015 l -0.182,0.024 c -1.089,0.103 -2.197,0.155 -3.295,0.155 -19.087,0 -34.615,-15.528 -34.615,-34.615 0,-19.087 15.529,-34.617 34.615,-34.617 h 3.927 c 1.469,0 2.659,1.191 2.659,2.659 0,1.468 -1.191,2.659 -2.659,2.659 h -3.927 c -16.154,0 -29.296,13.142 -29.296,29.296 0,16.154 13.142,29.296 29.296,29.296 0.899,0 1.807,-0.041 2.7,-0.123 l 0.262,-0.033 c 0.336,-0.026 0.678,-0.039 1.015,-0.039 7.34,0 13.311,5.972 13.311,13.311 0,6.958 -5.368,12.735 -12.269,13.271 l -0.239,0.028 c -1.599,0.139 -3.226,0.209 -4.837,0.209 z"
   id="path273" />
				<path
   class="st1"
   d="m 110.495,38.77 c -0.219,0 -0.442,-0.027 -0.664,-0.084 -2.511,-0.645 -5.09,-1.159 -7.664,-1.528 -1.454,-0.208 -2.464,-1.556 -2.256,-3.009 0.208,-1.454 1.555,-2.465 3.009,-2.256 2.766,0.396 5.536,0.948 8.234,1.641 1.423,0.366 2.279,1.815 1.914,3.238 -0.307,1.201 -1.388,1.998 -2.573,1.998 z"
   id="path275" />
			</g>
		</g>
		<g
   id="g359">
			<g
   id="g305">
				<g
   id="g303">
					
					
					
					
					
					
					
					
					
					
					
				</g>
			</g>
			<g
   id="g357">
				<g
   id="g355">
					
					
					
					
					
					
					
					
					
					
					
					
					
					
					
					
					
					
					
					
					
					
					
					
				</g>
			</g>
		</g>
	</g>
</g>
</svg>
